<?xml version="1.0" encoding="UTF-8"?><svg id="Layer_2" xmlns="http://www.w3.org/2000/svg" viewBox="0 0 80.05 80"><defs><style>.cls-1{fill:#fff;stroke-width:0px;}</style></defs><g id="Layer_1-2"><path class="cls-1" d="M73.18,14.61c-.23.66-1.16.66-1.38,0l-.78-2.28c-.53-1.56-1.75-2.78-3.31-3.31l-2.28-.78c-.66-.23-.66-1.16,0-1.38l2.28-.78c.6-.21,1.15-.52,1.63-.91-4.42-2.51-10.49-3.7-18.42-3.7h-16.96c-1.36,0-2.46,1.1-2.46,2.46v39.95c0,2.61-2.11,4.72-4.72,4.72h-8.17c-13.06,0-18.62,4.75-18.62,15.69s5.55,15.69,18.62,15.69h10.55c1.36,0,2.46-1.1,2.46-2.46v-24.09c0-2.61,2.11-4.72,4.72-4.72h14.58c19.5,0,27.78-7.16,27.78-23.62,0-6.15-1.16-11-3.62-14.66-.5.54-.89,1.18-1.13,1.89l-.78,2.28Z"/><path class="cls-1" d="M79.55,6.86l-2.28-.78c-1.56-.53-2.78-1.75-3.31-3.31l-.78-2.28c-.23-.66-1.16-.66-1.38,0l-.78,2.28c-.33.96-.91,1.78-1.68,2.4,2.39,1.36,4.29,3.11,5.75,5.27.59-.64,1.34-1.13,2.18-1.42l2.28-.78c.66-.23.66-1.16,0-1.38Z"/></g></svg>