<?xml version="1.0" encoding="UTF-8"?><svg id="Layer_2" xmlns="http://www.w3.org/2000/svg" viewBox="0 0 260 72.64"><defs><style>.cls-1{fill:#fff;stroke-width:0px;}</style></defs><g id="Layer_1-2"><path class="cls-1" d="M114.39,47.23v-4.44c0-.12.1-.22.22-.22h5.06c.12,0,.22.1.22.22v4.44c0,.12-.1.22-.22.22h-5.06c-.12,0-.22-.1-.22-.22ZM114.39,72.01v-21.27c0-.12.1-.22.22-.22h5.06c.12,0,.22.1.22.22v21.27c0,.12-.1.22-.22.22h-5.06c-.12,0-.22-.1-.22-.22Z"/><path class="cls-1" d="M123.46,65.89c0-1.39.39-2.61,1.18-3.64.79-1.04,1.88-1.85,3.27-2.44,1.39-.59,3.02-.88,4.87-.88.91,0,1.84.07,2.78.21.8.12,1.52.3,2.14.54.15.06.3-.05.3-.21v-.86c0-1.33-.4-2.36-1.2-3.09-.8-.73-2-1.1-3.61-1.1-1.22,0-2.36.21-3.44.62-1.01.39-2.08.94-3.19,1.65-.11.07-.26.03-.32-.09l-1.55-3.2c-.05-.1-.02-.22.08-.28,1.36-.91,2.76-1.59,4.21-2.03,1.51-.46,3.09-.68,4.74-.68,3.09,0,5.5.76,7.23,2.27,1.73,1.51,2.59,3.7,2.59,6.56v6.82c0,.57.1.98.31,1.23.18.21.46.35.83.42.11.02.18.11.18.22v4.14c0,.11-.08.2-.19.22-.42.07-.81.13-1.16.18-.4.06-.74.07-1.02.04-1.11,0-1.94-.24-2.51-.73-.57-.48-.91-1.08-1.02-1.8l-.07-.6c-.02-.19-.26-.27-.39-.12-.9,1.03-1.98,1.83-3.23,2.42-1.41.66-2.85.99-4.31.99s-2.73-.3-3.87-.9c-1.15-.6-2.04-1.41-2.69-2.44-.65-1.02-.97-2.16-.97-3.42ZM136.97,66.93c.3-.27.55-.58.75-.93.19-.35.29-.65.29-.89v-1.99c0-.09-.06-.17-.14-.21-.62-.24-1.3-.43-2.01-.57-.77-.15-1.51-.22-2.2-.22-1.44,0-2.62.3-3.54.91-.93.61-1.39,1.41-1.39,2.4,0,.54.15,1.06.46,1.56.3.5.74.9,1.31,1.19.57.3,1.26.44,2.09.44s1.64-.16,2.44-.49c.8-.32,1.45-.73,1.95-1.21Z"/><path class="cls-1" d="M182.26,72.23h-5.14c-.11,0-.21-.09-.21-.21v-11.8c0-1.72-.3-2.97-.89-3.76-.59-.79-1.42-1.18-2.47-1.18-1.11,0-2.14.42-3.11,1.25-.97.83-1.66,1.9-2.07,3.21v12.29c0,.11-.09.21-.21.21h-5.18c-.11,0-.21-.09-.21-.21v-11.8c0-1.72-.29-2.97-.87-3.76-.58-.79-1.4-1.18-2.44-1.18s-2.11.4-3.11,1.21c-.99.81-1.7,1.88-2.11,3.2v12.33c0,.11-.09.21-.21.21h-5.1c-.11,0-.21-.09-.21-.21v-21.09c0-.11.09-.21.21-.21h4.6c.11,0,.21.09.21.21v3.11c0,.2.26.28.38.12.78-1.11,1.77-1.99,2.96-2.63,1.39-.75,2.98-1.13,4.74-1.13s3.2.44,4.21,1.31c.89.77,1.49,1.7,1.81,2.78.05.17.27.2.37.05.84-1.28,1.88-2.27,3.12-2.98,1.37-.78,2.92-1.17,4.66-1.17,1.33,0,2.41.24,3.25.72.84.48,1.5,1.12,1.97,1.93.47.81.79,1.71.97,2.72.18,1.01.27,2.02.27,3.03v13.23c0,.11-.09.21-.21.21Z"/><path class="cls-1" d="M197.35,72.64c-1.77,0-3.35-.3-4.74-.9-1.4-.6-2.59-1.42-3.58-2.46-.99-1.04-1.75-2.22-2.26-3.54-.51-1.32-.77-2.73-.77-4.2s.26-2.96.77-4.3c.51-1.34,1.26-2.52,2.24-3.54.98-1.02,2.18-1.83,3.58-2.42,1.41-.59,2.98-.88,4.72-.88s3.39.29,4.79.88c1.39.59,2.59,1.39,3.58,2.42.99,1.02,1.75,2.21,2.28,3.54.52,1.34.79,2.77.79,4.3s-.26,2.88-.79,4.2c-.53,1.33-1.28,2.51-2.28,3.54-.99,1.04-2.19,1.86-3.58,2.46-1.4.6-2.98.9-4.74.9ZM191.67,61.54c0,1.22.25,2.32.75,3.29.5.98,1.18,1.73,2.05,2.28.87.54,1.83.81,2.88.81s2-.28,2.86-.83c.86-.56,1.54-1.31,2.05-2.28.51-.96.77-2.07.77-3.31s-.26-2.31-.77-3.27c-.51-.96-1.2-1.72-2.05-2.28-.86-.56-1.82-.83-2.9-.83s-2,.28-2.86.83c-.86.56-1.53,1.31-2.03,2.28-.5.96-.75,2.07-.75,3.31Z"/><path class="cls-1" d="M232.4,72.23h-5.13c-.12,0-.21-.1-.21-.21v-11.79c0-1.72-.3-2.97-.89-3.76-.59-.79-1.44-1.18-2.55-1.18-.75,0-1.5.19-2.26.57-.76.38-1.44.9-2.03,1.56-.59.66-1.06,1.42-1.39,2.29v12.32c0,.12-.1.21-.21.21h-5.09c-.12,0-.21-.1-.21-.21v-21.08c0-.12.1-.21.21-.21h4.59c.12,0,.21.1.21.21v3.08c0,.21.26.29.38.13.48-.67,1.06-1.26,1.73-1.75.86-.63,1.84-1.12,2.94-1.47,1.1-.35,2.29-.53,3.56-.53,1.35,0,2.47.24,3.34.72.87.48,1.53,1.13,1.99,1.95.46.82.77,1.73.95,2.72.18,1,.27,2,.27,3.01v13.23c0,.12-.1.21-.21.21Z"/><path class="cls-1" d="M236.13,61.5c0-2.05.41-3.92,1.24-5.61.83-1.69,1.97-3.03,3.44-4.02,1.46-.98,3.14-1.48,5.01-1.48,1.57,0,3.01.39,4.31,1.18,1.04.63,1.89,1.4,2.54,2.31.14.19.44.1.44-.14v-10.77c0-.14.11-.25.25-.25h5.1c.14,0,.25.11.25.25v23.04c0,.58.1.99.29,1.24.16.21.43.35.79.42.12.02.2.12.2.24v4.1c0,.12-.08.22-.2.24-.9.17-1.62.24-2.16.21-.99.03-1.82-.21-2.47-.7-.65-.5-1.02-1.15-1.1-1.95l-.04-.63c-.01-.23-.31-.31-.45-.12-.75,1.06-1.7,1.89-2.85,2.49-1.37.72-2.8,1.08-4.29,1.08s-2.87-.28-4.12-.84c-1.26-.56-2.35-1.35-3.27-2.38-.93-1.02-1.64-2.21-2.15-3.57-.51-1.35-.77-2.81-.77-4.36ZM253.16,64.3v-5.04c-.28-.79-.72-1.49-1.33-2.11-.61-.62-1.28-1.12-2.03-1.48-.75-.37-1.49-.55-2.24-.55-.86,0-1.63.18-2.32.53-.69.35-1.29.83-1.8,1.42-.51.6-.9,1.28-1.16,2.05-.26.77-.39,1.59-.39,2.46s.15,1.73.46,2.5c.3.77.72,1.45,1.24,2.03.52.58,1.16,1.03,1.91,1.34.75.31,1.55.47,2.4.47.55,0,1.09-.09,1.62-.26.52-.18,1.03-.43,1.51-.75.48-.33.92-.7,1.31-1.14.39-.43.66-.92.83-1.46Z"/><path class="cls-1" d="M108.84,50.08c-1.08-2.22-2.69-3.99-4.85-5.3-2.15-1.31-4.83-1.97-8.04-1.97h-4.75c-.12.01-.22.11-.22.23v4.78h4.97c1.85,0,3.43.41,4.72,1.22,1.3.82,2.29,1.95,2.98,3.4.69,1.45,1.04,3.13,1.04,5.03s-.34,3.51-1.02,4.97c-.68,1.46-1.66,2.62-2.94,3.48-1.28.86-2.88,1.28-4.79,1.28h-4.76c-.12,0-.22-.1-.22-.22v-19.17h-5.5c-.12,0-.22.1-.22.22v23.97c0,.12.1.22.22.22h10.47c2.96,0,5.52-.61,7.69-1.82,2.17-1.22,3.85-2.93,5.03-5.14,1.19-2.21,1.78-4.81,1.78-7.79,0-2.71-.54-5.17-1.62-7.4Z"/><path class="cls-1" d="M124.42,31.21c-1.77,0-3.35-.3-4.74-.9-1.4-.6-2.59-1.42-3.58-2.46-.99-1.04-1.75-2.22-2.26-3.54-.51-1.32-.77-2.73-.77-4.2s.26-2.96.77-4.3c.51-1.34,1.26-2.52,2.24-3.54.98-1.02,2.18-1.83,3.58-2.42,1.41-.59,2.98-.88,4.72-.88s3.39.29,4.79.88c1.39.59,2.59,1.39,3.58,2.42.99,1.02,1.75,2.21,2.28,3.54.52,1.34.79,2.77.79,4.3s-.26,2.88-.79,4.2c-.53,1.33-1.28,2.51-2.28,3.54-.99,1.04-2.19,1.86-3.58,2.46-1.4.6-2.98.9-4.74.9ZM118.74,20.1c0,1.22.25,2.32.75,3.29.5.98,1.18,1.73,2.05,2.28.87.54,1.83.81,2.88.81s2-.28,2.86-.83c.86-.56,1.54-1.31,2.05-2.28.51-.96.77-2.07.77-3.31s-.26-2.31-.77-3.27c-.51-.96-1.2-1.72-2.05-2.28-.86-.56-1.82-.83-2.9-.83s-2,.28-2.86.83c-.86.56-1.53,1.31-2.03,2.28-.5.96-.75,2.07-.75,3.31Z"/><path class="cls-1" d="M139.25,22.75v-13.22c0-.13.11-.24.24-.24h5.12c.13,0,.24.11.24.24v12c0,1.64.3,2.87.91,3.71.61.83,1.51,1.25,2.69,1.25.72,0,1.43-.14,2.13-.43.7-.28,1.35-.71,1.95-1.28.58-.56,1.08-1.26,1.49-2.1.02-.03.02-.07.02-.11v-13.05c0-.13.11-.24.24-.24h5.12c.13,0,.24.11.24.24v15.07c0,.57.1.98.29,1.23.16.21.43.35.8.42.11.02.2.12.2.24v4.11c0,.12-.09.22-.21.24-.46.07-.86.12-1.18.16-.37.04-.71.06-1.02.06-.97,0-1.76-.23-2.38-.7-.62-.46-1-1.07-1.14-1.83,0-.01,0-.02,0-.03l-.08-1.05c-.02-.22-.29-.3-.43-.13-.9,1.19-2.01,2.11-3.33,2.77-1.51.75-3.18,1.13-5.03,1.13-2.24,0-3.94-.72-5.12-2.15-1.17-1.44-1.76-3.54-1.76-6.3Z"/><path class="cls-1" d="M177.46,31.21c-1.66,0-3.14-.37-4.43-1.12-1.08-.62-1.97-1.43-2.66-2.43-.12-.18-.4-.09-.4.13v2.78c0,.12-.1.22-.22.22h-4.4c-.12,0-.22-.1-.22-.22V1.51c0-.12.1-.22.22-.22h5.07c.12,0,.22.1.22.22v10.9c0,.22.28.3.4.13.73-1.02,1.63-1.84,2.68-2.46,1.26-.75,2.73-1.12,4.41-1.12,1.41,0,2.69.29,3.85.88,1.16.59,2.16,1.4,3,2.44.84,1.04,1.5,2.23,1.97,3.59.47,1.35.7,2.78.7,4.28s-.26,3-.79,4.32c-.53,1.32-1.25,2.5-2.18,3.52-.93,1.02-2,1.82-3.21,2.38-1.22.56-2.56.84-4.02.84ZM175.88,26.48c.88,0,1.71-.16,2.47-.49.76-.33,1.4-.78,1.93-1.36.52-.58.93-1.25,1.22-2.01s.44-1.59.44-2.48c0-1.11-.24-2.17-.7-3.17-.47-1-1.13-1.8-1.99-2.4-.86-.6-1.85-.89-2.98-.89-.8,0-1.57.19-2.3.57-.73.38-1.38.87-1.95,1.48-.57.61-1.03,1.31-1.39,2.09v5.08c.22.54.51,1.04.87,1.48.36.45.79.82,1.28,1.12.5.3,1.02.53,1.55.71.54.18,1.06.26,1.55.26Z"/><path class="cls-1" d="M191.56,1.29h5.1c.13,0,.23.1.23.23v22.35c0,1.03.17,1.71.5,2.06.33.35.77.52,1.33.52.5,0,.97-.06,1.43-.17.35-.08.67-.19.96-.32.14-.06.29.02.32.17l.66,3.8c.02.1-.03.2-.13.24-.71.32-1.52.58-2.43.76-.98.19-1.89.29-2.71.29-1.74,0-3.09-.46-4.04-1.39-.95-.93-1.43-2.24-1.43-3.93V1.51c0-.13.1-.23.23-.23Z"/><path class="cls-1" d="M214.58,31.21c-1.74,0-3.31-.29-4.72-.88-1.41-.59-2.61-1.39-3.61-2.42-.99-1.02-1.75-2.19-2.28-3.5-.53-1.31-.79-2.72-.79-4.22,0-2.02.46-3.89,1.39-5.59.93-1.71,2.24-3.07,3.94-4.1,1.7-1.02,3.74-1.54,6.11-1.54s4.36.51,6.05,1.54c1.68,1.03,2.98,2.37,3.9,4.04.91,1.67,1.37,3.49,1.37,5.46,0,.36-.01.69-.04,1.01-.02.22-.04.42-.06.6-.01.12-.11.2-.23.2h-16.29c-.14,0-.24.12-.23.25.11,1.03.41,1.91.91,2.64.54.8,1.23,1.41,2.07,1.84.84.43,1.73.65,2.67.65,1.13,0,2.19-.27,3.17-.81.92-.5,1.56-1.17,1.94-2,.05-.1.16-.15.27-.12l4.27,1.2c.14.04.2.19.14.32-.49,1-1.19,1.9-2.08,2.69-.97.86-2.11,1.53-3.44,2.01-1.33.48-2.8.73-4.43.73ZM209.16,18.32h10.84c.14,0,.24-.12.23-.26-.13-.97-.43-1.82-.9-2.55-.51-.8-1.18-1.42-2.01-1.86-.83-.45-1.75-.67-2.78-.67s-1.9.22-2.71.67c-.82.45-1.48,1.07-1.99,1.86-.47.73-.77,1.58-.9,2.55-.02.14.09.26.23.26Z"/><path class="cls-1" d="M108.84,8.64c-1.08-2.22-2.69-3.99-4.85-5.3-2.15-1.31-4.83-1.97-8.04-1.97h-4.74c-.13,0-.23.1-.23.23v4.79h4.97c1.85,0,3.43.41,4.72,1.22,1.3.82,2.29,1.95,2.98,3.4.69,1.45,1.04,3.13,1.04,5.03s-.34,3.51-1.02,4.97c-.68,1.46-1.66,2.62-2.94,3.48-1.28.86-2.88,1.28-4.79,1.28h-4.74c-.13,0-.23-.1-.23-.23V6.39h-5.49c-.13,0-.23.1-.23.23v23.95c0,.13.1.23.23.23h10.46c2.96,0,5.52-.61,7.69-1.82,2.17-1.22,3.85-2.93,5.03-5.14,1.19-2.21,1.78-4.81,1.78-7.79,0-2.71-.54-5.17-1.62-7.4Z"/><path class="cls-1" d="M66.07,13.19c-.2.6-1.05.6-1.25,0l-.7-2.06c-.48-1.41-1.58-2.51-2.99-2.99l-2.06-.7c-.6-.2-.6-1.05,0-1.25l2.06-.7c.54-.19,1.04-.47,1.48-.82-3.99-2.27-9.47-3.34-16.63-3.34h-15.31c-1.23,0-2.22.99-2.22,2.22v36.06c0,2.35-1.91,4.26-4.26,4.26h-7.37c-11.79,0-16.81,4.29-16.81,14.17s5.01,14.17,16.81,14.17h9.52c1.23,0,2.22-.99,2.22-2.22v-21.75c0-2.35,1.91-4.26,4.26-4.26h13.16c17.6,0,25.08-6.46,25.08-21.33,0-5.55-1.04-9.93-3.26-13.24-.45.49-.8,1.06-1.02,1.71l-.7,2.06Z"/><path class="cls-1" d="M71.82,6.19l-2.06-.7c-1.41-.48-2.51-1.58-2.99-2.99l-.7-2.06c-.2-.6-1.05-.6-1.25,0l-.7,2.06c-.29.86-.82,1.61-1.51,2.17,2.16,1.23,3.88,2.81,5.19,4.76.53-.58,1.21-1.02,1.97-1.28l2.06-.7c.6-.2.6-1.05,0-1.25Z"/></g></svg>